# xmcd
# Copyright (C) 1995-1998 Ti Kan
#
# Track frame offsets:
#       150
#       26366
#       54645
#       82971
#       110870
#       140074
#       163130
#       185665
#       206358
#       231563
#       252031
#
# Disc length: 3635 seconds
#
# Revision: 0
# Processed by: cddbd v1.5.2PL0 Copyright (c) Steve Scherf et al.
# Submitted via: CD-Import v1.0
#
DISCID=9c0e310b
DTITLE=Aydin Yildrim - 
DYEAR=1900
DGENRE=
TTITLE0=120525 Dengeroj 1
TTITLE1=120525 Dengeroj 2
TTITLE2=120525 Dengeroj 3
TTITLE3=120525 Dengeroj 4
TTITLE4=120525 Dengeroj 5
TTITLE5=120525 Dengeroj 6
TTITLE6=120525 Dengeroj 7
TTITLE7=120525 Dengeroj 8
TTITLE8=120525 Dengeroj 9
TTITLE9=120525 Dengeroj 10
TTITLE10=120525 Dengeroj 11
EXTD=
EXTT0=
EXTT1=
EXTT2=
EXTT3=
EXTT4=
EXTT5=
EXTT6=
EXTT7=
EXTT8=
EXTT9=
EXTT10=
PLAYORDER=
